<svg viewBox="0 0 510 510" xmlns="http://www.w3.org/2000/svg" xmlns:xlink="http://www.w3.org/1999/xlink"><linearGradient id="a"><stop offset="0" stop-color="#ffda2d"/><stop offset="1" stop-color="#fdbf00"/></linearGradient><linearGradient id="d" gradientTransform="rotate(-90 791 1326)" gradientUnits="userSpaceOnUse" x1="1715.5" x2="1715.5" xlink:href="#a" y1="809" y2="868.9"/><linearGradient id="e" gradientTransform="rotate(-90 791 1326)" gradientUnits="userSpaceOnUse" x1="1729.1" x2="1729.1" xlink:href="#a" y1="866.7" y2="828.8"/><linearGradient id="b"><stop offset="0" stop-color="#ff9100" stop-opacity="0"/><stop offset="1" stop-color="#ff9100"/></linearGradient><linearGradient id="f" gradientUnits="userSpaceOnUse" x1="329.3" x2="306" xlink:href="#b" y1="358.1" y2="299.4"/><linearGradient id="g" gradientTransform="rotate(-90 791 1326)" gradientUnits="userSpaceOnUse" x1="1857.3" x2="2076" xlink:href="#a" y1="793.2" y2="1011.9"/><linearGradient id="h" gradientTransform="rotate(-90 791 1326)" gradientUnits="userSpaceOnUse" x1="1948.8" x2="1741.8" xlink:href="#a" y1="884.7" y2="677.7"/><linearGradient id="i" gradientUnits="userSpaceOnUse" x1="388.8" x2="315.4" xlink:href="#b" y1="293" y2="219.6"/><linearGradient id="j" gradientTransform="rotate(-45 706 1419)" gradientUnits="userSpaceOnUse" x1="1075.1" x2="1075.1" xlink:href="#a" y1="221.3" y2="281.2"/><linearGradient id="k" gradientTransform="rotate(-45 706 1419)" gradientUnits="userSpaceOnUse" x1="1088.7" x2="1088.7" xlink:href="#a" y1="279.1" y2="241.2"/><linearGradient id="l" gradientTransform="rotate(-45 706 1419)" gradientUnits="userSpaceOnUse" x1="1216.9" x2="1435.6" xlink:href="#a" y1="205.5" y2="424.3"/><linearGradient id="m" gradientTransform="rotate(-45 706 1419)" gradientUnits="userSpaceOnUse" x1="1308.4" x2="1101.4" xlink:href="#a" y1="297" y2="90"/><linearGradient id="n" gradientUnits="userSpaceOnUse" x1="383.9" x2="368.6" xlink:href="#b" y1="233.8" y2="186.8"/><linearGradient id="c"><stop offset="0" stop-color="#0b799d"/><stop offset="1" stop-color="#07485e"/></linearGradient><linearGradient id="o" gradientUnits="userSpaceOnUse" x1="249.6" x2="446.7" xlink:href="#c" y1="98.6" y2="98.6"/><linearGradient id="p" gradientUnits="userSpaceOnUse" x1="445.9" x2="276" xlink:href="#c" y1="196.4" y2="26.4"/><path d="M332 445v-10c0-3 1-6 3-8 5-3 5-11 0-14-2-2-3-5-3-8v-10c0-4 2-7 6-7s7-3 7-6v-8c0-4-3-7-7-7s-6-3-6-6v-20c0-4 2-7 6-7s7-3 7-6v-34h-75v170c0 7 2 14 7 19l20 22c5 7 15 7 21 0l20-22c4-5 7-12 7-19v-6c0-3-3-6-7-6s-6-3-6-7z" fill="url(#d)"/><path d="M319 294v177a12 12 0 01-24 0V294z" fill="url(#e)"/><path d="M345 374c0-4-3-7-7-7s-6-3-6-6v-20c0-4 2-7 6-7s7-3 7-6v-34h-75v17l74 74 1-3v-8z" fill="url(#f)"/><path d="M307 103a108 108 0 100 217 108 108 0 000-217zm0 98a31 31 0 110-61 31 31 0 010 61z" fill="url(#g)"/><path d="M307 122a89 89 0 100 179 89 89 0 000-179zm0 79a31 31 0 110-61 31 31 0 010 61z" fill="url(#h)"/><path d="M307 103a108 108 0 100 217 108 108 0 000-217zm0 98a31 31 0 110-61 31 31 0 010 61z" fill="url(#i)"/><g><path d="M130 382l8-7c2-2 5-3 8-3 6 1 11-4 10-10 0-3 1-6 3-8l7-7c3-3 7-3 9 0 3 2 7 2 10 0l5-6c3-2 3-6 0-9s-3-7 0-9l14-15c3-2 7-2 10 0 2 3 6 3 9 0l24-23-53-53L73 352c-5 5-7 11-8 18l-2 30c0 9 7 16 15 15l30-2c7 0 13-3 18-8l4-4c3-3 3-7 0-9-2-3-2-7 0-10z" fill="url(#j)"/><path d="M229 267L104 392a12 12 0 11-17-17l125-125z" fill="url(#k)"/><path d="M355 123a108 108 0 10-153 153 108 108 0 00153-153zm-69 70a31 31 0 1143-44 31 31 0 01-43 44z" fill="url(#l)"/><path d="M342 137a89 89 0 10-127 126 89 89 0 00127-126zm-56 56a31 31 0 1143-44 31 31 0 01-43 44z" fill="url(#m)"/></g><path d="M327 195l73 73a108 108 0 008-97c-10 9-34 25-81 24z" fill="url(#n)"/><path d="M348 0c-53 0-97 43-98 96 14-4 29-5 44-3a55 55 0 1137 58c-7-3-13-6-18-10a31 31 0 00-36 26A98 98 0 10348 0z" fill="url(#o)"/><path d="M424 99a76 76 0 00-151-7l21 1a55 55 0 1137 58c-7-3-13-6-18-10-8-2-17 0-24 5a76 76 0 00135-47z" fill="url(#p)"/></svg>